<svg viewBox="0 0 24.0 24.0" fill="currentColor"><path d="M15,2H17V4H15V2Z" id="path_0"/><path d="M20,12H22V14H20V12Z" id="path_1"/><path d="M20,4V6C20,6.552 19.552,7 19,7H17V9H19C20.657,9 22,7.657 22,6V4H20Z" id="path_2"/><path d="M13,9C12.448,9 12,9.448 12,10L19,17L5,22L2,19L7,5L10.438,8.438C10.965,7.576 11.915,7 13,7H15V9H13ZM7.821,8.649L7.095,10.68L10.857,17.785L13.429,16.866L10.495,11.323L7.821,8.649ZM4.844,16.983L6.079,13.525L8.749,18.537L6.157,19.463L4.844,16.983Z" fill-rule="evenodd" id="path_3"/></svg>