<svg id="vector" xmlns="http://www.w3.org/2000/svg" width="14.0d" height="16.0d" viewBox="0 0 14.0 16.0"><path fill="currentColor" d="M7.6516,7.5317C7.6516,7.044 8.0114,6.6522 8.4672,6.6522C8.9149,6.6522 9.2827,7.044 9.2827,7.5317C9.2827,8.0194 8.9229,8.4112 8.4672,8.4112C8.0194,8.4112 7.6516,8.0194 7.6516,7.5317Z" id="path_0"/><path fill="currentColor" d="M4.7333,7.5317C4.7333,7.044 5.0931,6.6522 5.5489,6.6522C6.0046,6.6522 6.3724,7.044 6.3644,7.5317C6.3644,8.0194 6.0046,8.4112 5.5489,8.4112C5.1011,8.4112 4.7333,8.0194 4.7333,7.5317Z" id="path_1"/><path fill="currentColor" d="M1.6391,0H12.3529C13.2564,0 13.992,0.7356 14,1.6391V15.8549L12.273,14.3598L11.3055,13.4723L10.2821,12.5288L10.7059,13.992H1.6391C0.7356,13.992 0,13.2564 0,12.3529V1.6391C0,0.7356 0.7356,0 1.6391,0ZM8.739,9.7144C8.9789,10.0103 9.2667,10.3541 9.2667,10.3541C10.9408,10.3011 11.6316,9.2649 11.6997,9.1628C11.7035,9.1571 11.7053,9.1544 11.7053,9.1548C11.7053,6.6042 10.554,4.5334 10.554,4.5334C9.4106,3.6779 8.3153,3.7019 8.3153,3.7019L8.2033,3.8298C9.5625,4.2376 10.1942,4.8372 10.1942,4.8372C9.3626,4.3895 8.5471,4.1656 7.7875,4.0777C7.2119,4.0137 6.6602,4.0297 6.1725,4.0937C6.1306,4.0937 6.0948,4.0998 6.0545,4.1066C6.0486,4.1076 6.0427,4.1086 6.0366,4.1097C5.7567,4.1416 5.0771,4.2376 4.2216,4.6134C3.9258,4.7413 3.7499,4.8372 3.7499,4.8372C3.7499,4.8372 4.4055,4.2056 5.8447,3.7978L5.7647,3.7019C5.7647,3.7019 4.6773,3.6779 3.526,4.5334C3.526,4.5334 2.3746,6.6042 2.3746,9.1548C2.3746,9.1548 3.0463,10.3061 4.8133,10.3621C4.8133,10.3621 5.1091,10.0103 5.3489,9.7065C4.3335,9.4026 3.9497,8.771 3.9497,8.771C3.9497,8.771 4.0297,8.827 4.1736,8.9069C4.1786,8.9069 4.1835,8.91 4.1903,8.9142C4.1946,8.9168 4.1995,8.9199 4.2056,8.9229C4.2176,8.9309 4.2296,8.9369 4.2416,8.9429C4.2536,8.9489 4.2656,8.9549 4.2776,8.9629C4.4774,9.0748 4.6773,9.1628 4.8612,9.2347C5.189,9.3706 5.5808,9.4906 6.0366,9.5785C6.6362,9.6905 7.3398,9.7304 8.1074,9.5865C8.4831,9.5146 8.8669,9.4106 9.2667,9.2427C9.5465,9.1388 9.8584,8.9869 10.1862,8.771C10.1862,8.771 9.7864,9.4186 8.739,9.7144Z" fill-rule="evenodd" id="path_2"/></svg>