<svg viewBox="0 0 13.0 12.0"><path fill="currentColor" d="M11.341,0H0.663C0.4872,0 0.3185,0.0699 0.1942,0.1942C0.0699,0.3185 0,0.4872 0,0.663V11.337C0,11.703 0.297,12 0.663,12H6.413V7.369H4.845V5.543H6.405V4.21C6.405,2.658 7.351,1.814 8.734,1.814C9.204,1.815 9.674,1.842 10.141,1.894V3.513H9.183C8.432,3.513 8.287,3.868 8.287,4.393V5.551H10.087L9.853,7.368H8.287V12H11.341C11.5168,12 11.6855,11.9301 11.8098,11.8058C11.9341,11.6815 12.004,11.5128 12.004,11.337V0.663C12.004,0.5759 11.9868,0.4896 11.9534,0.409C11.9201,0.3285 11.8711,0.2554 11.8095,0.1938C11.7478,0.1323 11.6746,0.0834 11.594,0.0502C11.5135,0.0169 11.4272,-0.0001 11.34,0H11.341Z" id="path_0"/></svg>