<svg xmlns="http://www.w3.org/2000/svg" viewBox="0 0 24.0 24.0" fill="currentColor"><path d="M12,6.4286L13.0355,5.4226C13.9732,4.5117 15.245,4 16.5711,4H17C19.7614,4 22,6.1746 22,8.8571V9.2738C22,10.562 21.4732,11.7974 20.5355,12.7083L12,21L3.4645,12.7083C2.5268,11.7974 2,10.562 2,9.2738V8.8571C2,6.1746 4.2386,4 7,4H7.4289C8.7547,4 10.0262,4.5115 10.9638,5.422L12,6.4286ZM9.5703,6.8566C9.0119,6.3144 8.2427,6 7.4289,6H7C5.2881,6 4,7.3334 4,8.8571V9.2738C4,10.0126 4.3016,10.7332 4.858,11.2738L12,18.2117L19.142,11.2738C19.6984,10.7332 20,10.0126 20,9.2738V8.8571C20,7.3334 18.7119,6 17,6H16.5711C15.757,6 14.9876,6.3147 14.4291,6.8572L12,9.2169L9.5703,6.8566Z" fill-rule="evenodd" id="path_0"/></svg>