<svg id="vector" xmlns="http://www.w3.org/2000/svg" width="20.0d" height="18.0d" viewBox="0 0 20.0 18.0"><path fill="#ff000000" d="M10.0001,0C7.8622,-0.0011 5.7937,0.759 4.1651,2.144C2.5364,3.5291 1.454,5.4487 1.1117,7.559C0.7694,9.6694 1.1896,11.8327 2.2969,13.6615C3.4042,15.4903 5.1265,16.8652 7.1551,17.54C7.6051,17.623 7.7691,17.345 7.7691,17.106C7.7691,16.893 7.7621,16.326 7.7571,15.576C5.2541,16.119 4.7261,14.369 4.7261,14.369C4.3161,13.329 3.7261,13.052 3.7261,13.052C2.9091,12.494 3.7881,12.505 3.7881,12.505C4.6911,12.569 5.1661,13.433 5.1661,13.433C5.9691,14.808 7.2731,14.411 7.7861,14.181C7.8681,13.599 8.1001,13.203 8.3571,12.978C6.3591,12.751 4.2571,11.978 4.2571,8.53C4.2571,7.547 4.6081,6.743 5.1841,6.115C5.0911,5.887 4.7821,4.971 5.2731,3.733C5.2731,3.733 6.0281,3.491 7.7471,4.655C8.4815,4.455 9.239,4.3531 10.0001,4.352C10.7612,4.3532 11.5188,4.4551 12.2531,4.655C13.9721,3.491 14.7261,3.733 14.7261,3.733C15.2171,4.971 14.9081,5.887 14.8161,6.115C15.3931,6.743 15.7411,7.547 15.7411,8.53C15.7411,11.987 13.6361,12.748 11.6311,12.97C11.9541,13.248 12.2421,13.798 12.2421,14.637C12.2421,15.84 12.2321,16.811 12.2321,17.106C12.2321,17.346 12.3941,17.627 12.8501,17.539C14.8785,16.8636 16.6001,15.4882 17.7069,13.6591C18.8136,11.83 19.233,9.6666 18.8901,7.5565C18.5472,5.4463 17.4644,3.5271 15.8355,2.1425C14.2066,0.758 12.138,-0.0015 10.0001,0Z" fill-rule="evenodd" id="path_0"/></svg>