<svg viewBox="0 0 16.0 16.0"><path fill="currentColor" d="M7.9997,3.8919C5.7308,3.8919 3.8919,5.7312 3.8919,7.9998C3.8919,10.2685 5.7311,12.1077 7.9997,12.1077C10.2683,12.1077 12.1075,10.2685 12.1075,7.9998C12.1075,5.7312 10.2686,3.8919 7.9997,3.8919ZM7.9997,10.6664C6.5269,10.6664 5.3332,9.4723 5.3332,7.9998C5.3332,6.527 6.5272,5.3333 7.9997,5.3333C9.4722,5.3333 10.6661,6.5273 10.6661,7.9998C10.6661,9.4727 9.4725,10.6664 7.9997,10.6664Z" fill-rule="evenodd" id="path_0"/><path fill="currentColor" d="M13.23,3.7294C13.23,4.2595 12.8002,4.6893 12.2701,4.6893C11.7399,4.6893 11.3101,4.2595 11.3101,3.7294C11.3101,3.1992 11.7399,2.7694 12.2701,2.7694C12.8002,2.7694 13.23,3.1992 13.23,3.7294Z" id="path_1"/><path fill="currentColor" d="M7.9997,0C5.827,0 5.5546,0.0092 4.7013,0.0483C3.85,0.087 3.2685,0.2223 2.7595,0.4201C2.2333,0.6246 1.7872,0.898 1.3426,1.3429C0.898,1.7875 0.6243,2.2337 0.4201,2.7596C0.2223,3.2686 0.087,3.85 0.0483,4.7014C0.0092,5.5547 0,5.8271 0,7.9998C0,10.1726 0.0092,10.445 0.0483,11.2983C0.087,12.1496 0.2223,12.7311 0.4201,13.2401C0.6246,13.7663 0.898,14.2125 1.3429,14.6571C1.7878,15.102 2.2336,15.3754 2.7598,15.5799C3.2685,15.7777 3.8503,15.913 4.7016,15.9517C5.5549,15.9908 5.8273,16 8,16C10.1727,16 10.4451,15.9908 11.2984,15.9517C12.1497,15.913 12.7315,15.7777 13.2402,15.5799C13.7664,15.3754 14.2125,15.102 14.6571,14.6571C15.102,14.2122 15.3754,13.7663 15.5799,13.2401C15.7777,12.7314 15.913,12.1496 15.9517,11.2983C15.9908,10.445 16,10.1726 16,7.9998C16,5.8271 15.9908,5.5547 15.9517,4.7014C15.913,3.85 15.7777,3.2683 15.5799,2.7596C15.3754,2.2334 15.102,1.7872 14.6571,1.3426C14.2122,0.8977 13.7664,0.6243 13.2402,0.4198C12.7308,0.2223 12.1494,0.087 11.2981,0.0483C10.4448,0.0092 10.1723,0 7.9997,0ZM7.9997,1.4414C10.1358,1.4414 10.3886,1.4496 11.2323,1.4881C12.0122,1.5236 12.4358,1.6538 12.7178,1.7634C13.0913,1.9085 13.3577,2.0819 13.6378,2.3617C13.9178,2.6417 14.0912,2.9082 14.236,3.2816C14.3456,3.5636 14.4758,3.9872 14.5113,4.7671C14.5498,5.6106 14.558,5.8636 14.558,7.9998C14.558,10.136 14.5498,10.3888 14.5113,11.2325C14.4758,12.0125 14.3456,12.4361 14.236,12.7181C14.0909,13.0915 13.9175,13.3579 13.6378,13.638C13.3577,13.9181 13.0913,14.0915 12.7178,14.2363C12.4358,14.3459 12.0122,14.4761 11.2323,14.5116C10.3889,14.55 10.1358,14.5583 7.9997,14.5583C5.8635,14.5583 5.6104,14.55 4.767,14.5116C3.9871,14.4761 3.5635,14.3459 3.2815,14.2363C2.9081,14.0912 2.6417,13.9178 2.3616,13.638C2.0815,13.3579 1.9081,13.0915 1.7634,12.7181C1.6538,12.4361 1.5236,12.0125 1.488,11.2325C1.4496,10.3891 1.4413,10.136 1.4413,7.9998C1.4413,5.8636 1.4496,5.6109 1.488,4.7671C1.5236,3.9872 1.6538,3.5636 1.7634,3.2816C1.9085,2.9082 2.0819,2.6417 2.3616,2.3617C2.6417,2.0816 2.9081,1.9082 3.2815,1.7634C3.5635,1.6538 3.9871,1.5236 4.767,1.4881C5.6108,1.4496 5.8635,1.4414 7.9997,1.4414Z" fill-rule="evenodd" id="path_2"/></svg>