<svg xmlns="http://www.w3.org/2000/svg" viewBox="0 0 20.0 20.0" fill="currentColor"><path d="M7.134,16.5303L6,18.4943C5.8226,18.8062 5.4917,18.9992 5.1329,19C4.774,19.0008 4.4423,18.8092 4.2635,18.4981C4.0848,18.1869 4.0865,17.8038 4.268,17.4943L13.268,1.9053C13.4454,1.5933 13.7763,1.4003 14.1351,1.3995C14.494,1.3987 14.8257,1.5903 15.0045,1.9014C15.1832,2.2126 15.1815,2.5957 15,2.9053L14.332,4.0623C17.062,5.4403 19,7.9063 19,9.9943C19,13.0803 14.763,16.9943 10,16.9943C9.01,16.9943 8.044,16.8253 7.134,16.5303ZM13.344,5.7743L12.128,7.8803C13.082,8.8411 13.2742,10.3219 12.5969,11.4944C11.9197,12.667 10.541,13.2405 9.232,12.8943L8.154,14.7613C8.7573,14.9153 9.3774,14.9936 10,14.9943C14.044,14.9943 17,11.7063 17,9.9943C17,8.8043 15.572,6.8543 13.344,5.7743ZM1,9.9943C1,11.5243 2.043,13.2613 3.677,14.6213L4.685,12.8743C3.622,11.8963 3,10.7793 3,9.9943C3,8.3963 5.577,5.4233 9.211,5.0363L10.385,3.0022C10.257,2.9973 10.129,2.9943 10,2.9943C5.237,2.9943 1,6.9083 1,9.9943Z" fill-rule="evenodd" id="path_0"/></svg>