<svg xmlns="http://www.w3.org/2000/svg" viewBox="0 0 20.0 20.0" fill="currentColor"><path d="M2.547 10a8 8 0 1 1 3.762 6.786c-0.505-0.316-0.534-1.014-0.112-1.436 0.364-0.364 0.94-0.39 1.387-0.134a5.964 5.964 0 0 0 2.963 0.784c3.31 0 6-2.691 6-6 0-3.31-2.69-6-6-6s-6 2.69-6 6h 0.608a 0.6 0.6 0 0 1 0.436 1.012l-1.466 1.55a 0.6 0.6 0 0 1-0.849 0.025L1.64 11.035A 0.6 0.6 0 0 1 2.052 10h 0.495zm9-3v2.628l1.717 1.666a1.003 1.003 0 0 1 0 1.414 1.003 1.003 0 0 1-1.414 0l-2.01-1.951A1.051 1.051 0 0 1 9.546 10V7c0-0.55 0.45-1 1-1s1 0.45 1 1z" fill-rule="evenodd" id="path_0"/></svg>