<svg xmlns="http://www.w3.org/2000/svg" viewBox="0 0 24.0 24.0" fill="currentColor"><path d="M20.207,10.168C20.049,10.183 19.892,10.191 19.734,10.192C18.006,10.192 16.393,9.321 15.445,7.874V15.766C15.445,18.988 12.834,21.6 9.611,21.6C6.389,21.6 3.78,18.989 3.78,15.766C3.78,12.543 6.391,9.932 9.614,9.932C9.735,9.932 9.855,9.944 9.974,9.951V12.825C9.855,12.811 9.737,12.788 9.614,12.788C7.969,12.788 6.637,14.122 6.637,15.765C6.637,17.41 7.97,18.742 9.614,18.742C11.258,18.742 12.711,17.446 12.711,15.802L12.738,2.4H15.489C15.748,4.866 17.737,6.792 20.21,6.973V10.168" id="path_0"/></svg>