<svg viewBox="0 0 18.0 16.0" fill="currentColor"><path d="M18,1.844C17.34,2.156 16.626,2.368 15.88,2.464C16.663,1.954 17.24,1.184 17.503,0.286C16.783,0.743 15.988,1.068 15.158,1.241C14.481,0.461 13.498,0.011 12.464,0.001C10.424,0.001 8.77,1.761 8.77,3.941C8.77,4.251 8.807,4.551 8.87,4.841C5.8,4.668 3.078,3.1 1.253,0.72C0.923,1.326 0.753,2.006 0.755,2.697C0.755,4.06 1.408,5.264 2.398,5.97C1.808,5.95 1.233,5.78 0.726,5.477V5.527C0.726,7.433 1.998,9.023 3.689,9.384C3.139,9.54 2.569,9.564 2.019,9.451C2.489,11.021 3.849,12.151 5.469,12.181C3.949,13.471 1.969,14.061 -0.001,13.811C1.659,14.961 3.639,15.581 5.659,15.581C12.449,15.581 16.169,9.591 16.169,4.391C16.169,4.221 16.159,4.051 16.159,3.881C16.889,3.321 17.509,2.631 17.999,1.851"/></svg>