<svg viewBox="0 0 24.0 24.0" fill="currentColor"><path d="M3,7C3,4.2386 5.2386,2 8,2C10.7614,2 13,4.2386 13,7C13,9.419 11.2822,11.4367 9,11.9V12C9,12.5523 9.4477,13 10,13H11C12.6569,13 14,14.3431 14,16V22H12V16C12,15.4477 11.5523,15 11,15H10C9.2317,15 8.5308,14.7111 8,14.2361C7.4692,14.7111 6.7684,15 6,15H5C4.4477,15 4,15.4477 4,16V22H2V16C2,14.3431 3.3431,13 5,13H6C6.5523,13 7,12.5523 7,12V11.9C4.7178,11.4367 3,9.419 3,7ZM8,10C6.3432,10 5,8.6568 5,7C5,5.3432 6.3432,4 8,4C9.6568,4 11,5.3432 11,7C11,8.6568 9.6568,10 8,10Z" fill-rule="evenodd"/><path d="M22,10V15L20,14V15H15V10H20V11L22,10Z"/></svg>