<svg xmlns="http://www.w3.org/2000/svg" viewBox="0 0 24.0 24.0" fill="currentColor"><path d="M6,8C6,4.6863 8.6863,2 12,2C15.3137,2 18,4.6863 18,8C18,10.9642 15.8504,13.4264 13.025,13.9128L13.037,13.9487C13.4453,15.1737 14.5917,16 15.883,16H17C19.2091,16 21,17.7908 21,20V22H19V20C19,18.8954 18.1046,18 17,18H15.883C14.3451,18 12.9306,17.2968 12,16.1504C11.0695,17.2968 9.6549,18 8.117,18H7C5.8954,18 5,18.8954 5,20V22H3V20C3,17.7908 4.7909,16 7,16H8.117C9.4082,16 10.5547,15.1737 10.963,13.9487L10.975,13.9128C8.1496,13.4264 6,10.9642 6,8ZM12,12C9.7909,12 8,10.2091 8,8C8,5.7909 9.7909,4 12,4C14.2091,4 16,5.7909 16,8C16,10.2091 14.2091,12 12,12Z" fill-rule="evenodd" id="path_0"/></svg>