<svg xmlns="http://www.w3.org/2000/svg" viewBox="0 0 18.0 14.0" fill="currentColor"><path d="M7.16,9.6759V4.3229L11.863,6.9999L7.16,9.6759ZM17.624,2.6389C17.5225,2.2557 17.3219,1.906 17.0425,1.6248C16.763,1.3436 16.4146,1.1409 16.032,1.0369C14.628,0.6589 9,0.6589 9,0.6589C9,0.6589 3.372,0.6589 1.968,1.0369C1.5857,1.1411 1.2375,1.344 0.9582,1.6251C0.679,1.9063 0.4786,2.2559 0.377,2.6389C-0,4.0519 0,6.9989 0,6.9989C0,6.9989 -0,9.9469 0.377,11.3589C0.584,12.1389 1.194,12.7529 1.967,12.9619C3.372,13.3419 9,13.3419 9,13.3419C9,13.3419 14.628,13.3419 16.032,12.9619C16.4144,12.8577 16.7627,12.6549 17.0421,12.3737C17.3215,12.0926 17.5222,11.743 17.624,11.3599C18,9.9469 18,6.9999 18,6.9999C18,6.9999 18,4.0519 17.624,2.6389Z" fill-rule="evenodd" id="path_0"/></svg>