<svg viewBox="0 0 20 20" fill="currentColor"><g><path d="M11.414 8.586c.362.362.586.862.586 1.414 0 .552-.224 1.052-.586 1.414l1.414 1.415A3.987 3.987 0 0014 10a3.987 3.987 0 00-1.172-2.828l-1.414 1.414zM5.757 5.757L4.343 4.343A7.975 7.975 0 002 10c0 2.21.895 4.21 2.343 5.657l1.414-1.414A5.981 5.981 0 014 10c0-1.657.672-3.157 1.757-4.243zM7.172 12.829l1.414-1.415A1.994 1.994 0 018 10c0-.552.224-1.052.586-1.414L7.172 7.172A3.987 3.987 0 006 10c0 1.105.448 2.105 1.172 2.829zM14.243 14.243l1.414 1.414A7.975 7.975 0 0018 10c0-2.209-.895-4.209-2.343-5.657l-1.414 1.414A5.981 5.981 0 0116 10a5.981 5.981 0 01-1.757 4.243z"></path></g></svg>